{
  "accessors": [
    {
      "bufferView": 2,
      "componentType": 5126,
      "count": 96,
      "max": [
        0.3846049904823303,
        0.3846049904823303,
        1.1000000085914508e-05
      ],
      "min": [
        -0.3846049904823303,
        -0.3846049904823303,
        -0.001689000055193901
      ],
      "type": "VEC3"
    },
    {
      "bufferView": 2,
      "byteOffset": 1152,
      "componentType": 5126,
      "count": 96,
      "max": [
        1.0,
        1.0,
        1.0
      ],
      "min": [
        -1.0,
        -1.0,
        -1.0
      ],
      "type": "VEC3"
    },
    {
      "bufferView": 3,
      "componentType": 5126,
      "count": 96,
      "max": [
        1.0,
        1.0,
        0.0,
        1.0
      ],
      "min": [
        -1.0,
        -1.0,
        0.0,
        1.0
      ],
      "type": "VEC4"
    },
    {
      "bufferView": 1,
      "componentType": 5126,
      "count": 96,
      "max": [
        0.9180819988250732,
        0.1323540061712265
      ],
      "min": [
        0.6739330291748047,
        0.03596099838614464
      ],
      "type": "VEC2"
    },
    {
      "bufferView": 0,
      "componentType": 5125,
      "count": 144,
      "type": "SCALAR"
    },
    {
      "bufferView": 2,
      "byteOffset": 2304,
      "componentType": 5126,
      "count": 65532,
      "max": [
        0.38760998845100403,
        0.38760900497436523,
        0.7890030145645142
      ],
      "min": [
        -0.38760900497436523,
        -0.38760998845100403,
        -0.001689000055193901
      ],
      "type": "VEC3"
    },
    {
      "bufferView": 2,
      "byteOffset": 788688,
      "componentType": 5126,
      "count": 65532,
      "max": [
        1.0,
        1.0,
        1.0
      ],
      "min": [
        -1.0,
        -1.0,
        -1.0
      ],
      "type": "VEC3"
    },
    {
      "bufferView": 3,
      "byteOffset": 1536,
      "componentType": 5126,
      "count": 65532,
      "max": [
        1.0,
        1.0,
        1.0,
        1.0
      ],
      "min": [
        -1.0,
        -1.0,
        -1.0,
        -1.0
      ],
      "type": "VEC4"
    },
    {
      "bufferView": 1,
      "byteOffset": 768,
      "componentType": 5126,
      "count": 65532,
      "max": [
        0.9924409985542297,
        0.9979529976844788
      ],
      "min": [
        0.007459000218659639,
        0.02244199998676777
      ],
      "type": "VEC2"
    },
    {
      "bufferView": 0,
      "byteOffset": 576,
      "componentType": 5125,
      "count": 271416,
      "type": "SCALAR"
    },
    {
      "bufferView": 2,
      "byteOffset": 1575072,
      "componentType": 5126,
      "count": 65532,
      "max": [
        0.3884449899196625,
        0.3884449899196625,
        0.7902680039405823
      ],
      "min": [
        -0.3884449899196625,
        -0.3884449899196625,
        0.2779709994792938
      ],
      "type": "VEC3"
    },
    {
      "bufferView": 2,
      "byteOffset": 2361456,
      "componentType": 5126,
      "count": 65532,
      "max": [
        1.0,
        1.0,
        1.0
      ],
      "min": [
        -1.0,
        -1.0,
        -1.0
      ],
      "type": "VEC3"
    },
    {
      "bufferView": 3,
      "byteOffset": 1050048,
      "componentType": 5126,
      "count": 65532,
      "max": [
        1.0,
        1.0,
        1.0,
        1.0
      ],
      "min": [
        -1.0,
        -1.0,
        -1.0,
        -1.0
      ],
      "type": "VEC4"
    },
    {
      "bufferView": 1,
      "byteOffset": 525024,
      "componentType": 5126,
      "count": 65532,
      "max": [
        0.9923949837684631,
        0.9929220080375671
      ],
      "min": [
        0.016970999538898468,
        0.13231199979782104
      ],
      "type": "VEC2"
    },
    {
      "bufferView": 0,
      "byteOffset": 1086240,
      "componentType": 5125,
      "count": 309180,
      "type": "SCALAR"
    },
    {
      "bufferView": 2,
      "byteOffset": 3147840,
      "componentType": 5126,
      "count": 65532,
      "max": [
        0.38822299242019653,
        0.38822299242019653,
        0.7902680039405823
      ],
      "min": [
        -0.38822299242019653,
        -0.38822299242019653,
        0.7296450138092041
      ],
      "type": "VEC3"
    },
    {
      "bufferView": 2,
      "byteOffset": 3934224,
      "componentType": 5126,
      "count": 65532,
      "max": [
        1.0,
        1.0,
        1.0
      ],
      "min": [
        -1.0,
        -1.0,
        -0.9967530369758606
      ],
      "type": "VEC3"
    },
    {
      "bufferView": 3,
      "byteOffset": 2098560,
      "componentType": 5126,
      "count": 65532,
      "max": [
        1.0,
        1.0,
        0.9912819862365723,
        1.0
      ],
      "min": [
        -1.0,
        -1.0,
        -0.990925133228302,
        -1.0
      ],
      "type": "VEC4"
    },
    {
      "bufferView": 1,
      "byteOffset": 1049280,
      "componentType": 5126,
      "count": 65532,
      "max": [
        0.9923290014266968,
        0.9987660050392151
      ],
      "min": [
        0.8089939951896667,
        0.8421940207481384
      ],
      "type": "VEC2"
    },
    {
      "bufferView": 0,
      "byteOffset": 2322960,
      "componentType": 5125,
      "count": 159075,
      "type": "SCALAR"
    },
    {
      "bufferView": 2,
      "byteOffset": 4720608,
      "componentType": 5126,
      "count": 65532,
      "max": [
        0.3846519887447357,
        0.3878529965877533,
        0.7867980003356934
      ],
      "min": [
        -0.3877849876880646,
        -0.3878529965877533,
        0.7296450138092041
      ],
      "type": "VEC3"
    },
    {
      "bufferView": 2,
      "byteOffset": 5506992,
      "componentType": 5126,
      "count": 65532,
      "max": [
        1.0,
        1.0,
        0.995812714099884
      ],
      "min": [
        -1.0,
        -1.0,
        -0.9952429533004761
      ],
      "type": "VEC3"
    },
    {
      "bufferView": 3,
      "byteOffset": 3147072,
      "componentType": 5126,
      "count": 65532,
      "max": [
        1.0,
        1.0,
        0.9913011193275452,
        1.0
      ],
      "min": [
        -1.0,
        -1.0,
        -0.990925133228302,
        -1.0
      ],
      "type": "VEC4"
    },
    {
      "bufferView": 1,
      "byteOffset": 1573536,
      "componentType": 5126,
      "count": 65532,
      "max": [
        0.9923290014266968,
        0.9987660050392151
      ],
      "min": [
        0.8089939951896667,
        0.8421940207481384
      ],
      "type": "VEC2"
    },
    {
      "bufferView": 0,
      "byteOffset": 2959260,
      "componentType": 5125,
      "count": 156978,
      "type": "SCALAR"
    },
    {
      "bufferView": 2,
      "byteOffset": 6293376,
      "componentType": 5126,
      "count": 65532,
      "max": [
        0.37800300121307373,
        0.3833880126476288,
        0.7421619892120361
      ],
      "min": [
        -0.3878529965877533,
        -0.38359999656677246,
        0.2777419984340668
      ],
      "type": "VEC3"
    },
    {
      "bufferView": 2,
      "byteOffset": 7079760,
      "componentType": 5126,
      "count": 65532,
      "max": [
        0.9999999403953552,
        1.0,
        1.0
      ],
      "min": [
        -0.9999999403953552,
        -1.0,
        -1.0
      ],
      "type": "VEC3"
    },
    {
      "bufferView": 3,
      "byteOffset": 4195584,
      "componentType": 5126,
      "count": 65532,
      "max": [
        1.0,
        1.0,
        0.9999999403953552,
        1.0
      ],
      "min": [
        -1.0,
        -1.0,
        -0.9999999403953552,
        -1.0
      ],
      "type": "VEC4"
    },
    {
      "bufferView": 1,
      "byteOffset": 2097792,
      "componentType": 5126,
      "count": 65532,
      "max": [
        0.9923949837684631,
        0.9987660050392151
      ],
      "min": [
        0.005288999993354082,
        0.023719999939203262
      ],
      "type": "VEC2"
    },
    {
      "bufferView": 0,
      "byteOffset": 3587172,
      "componentType": 5125,
      "count": 290739,
      "type": "SCALAR"
    },
    {
      "bufferView": 2,
      "byteOffset": 7866144,
      "componentType": 5126,
      "count": 65534,
      "max": [
        0.3768030107021332,
        0.3723669946193695,
        0.727944016456604
      ],
      "min": [
        -0.3607510030269623,
        -0.3768030107021332,
        0.4655170142650604
      ],
      "type": "VEC3"
    },
    {
      "bufferView": 2,
      "byteOffset": 8652552,
      "componentType": 5126,
      "count": 65534,
      "max": [
        1.0,
        1.0,
        1.0
      ],
      "min": [
        -1.0,
        -1.0,
        -1.0
      ],
      "type": "VEC3"
    },
    {
      "bufferView": 3,
      "byteOffset": 5244096,
      "componentType": 5126,
      "count": 65534,
      "max": [
        1.0,
        1.0,
        1.0,
        1.0
      ],
      "min": [
        -1.0,
        -1.0,
        -1.0,
        -1.0
      ],
      "type": "VEC4"
    },
    {
      "bufferView": 1,
      "byteOffset": 2622048,
      "componentType": 5126,
      "count": 65534,
      "max": [
        0.9927430152893066,
        0.997868001461029
      ],
      "min": [
        0.007822000421583652,
        0.02174999937415123
      ],
      "type": "VEC2"
    },
    {
      "bufferView": 0,
      "byteOffset": 4750128,
      "componentType": 5125,
      "count": 322311,
      "type": "SCALAR"
    },
    {
      "bufferView": 2,
      "byteOffset": 9438960,
      "componentType": 5126,
      "count": 65532,
      "max": [
        0.3843289911746979,
        0.3845460116863251,
        0.7807750105857849
      ],
      "min": [
        -0.38443100452423096,
        -0.38318800926208496,
        -3.099999958067201e-05
      ],
      "type": "VEC3"
    },
    {
      "bufferView": 2,
      "byteOffset": 10225344,
      "componentType": 5126,
      "count": 65532,
      "max": [
        1.0,
        1.0,
        1.0
      ],
      "min": [
        -1.0,
        -1.0,
        -1.0
      ],
      "type": "VEC3"
    },
    {
      "bufferView": 3,
      "byteOffset": 6292640,
      "componentType": 5126,
      "count": 65532,
      "max": [
        1.0,
        1.0,
        1.0,
        1.0
      ],
      "min": [
        -1.0,
        -1.0,
        -1.0,
        -1.0
      ],
      "type": "VEC4"
    },
    {
      "bufferView": 1,
      "byteOffset": 3146320,
      "componentType": 5126,
      "count": 65532,
      "max": [
        0.9925190210342407,
        0.997868001461029
      ],
      "min": [
        0.007207000162452459,
        0.006215999834239483
      ],
      "type": "VEC2"
    },
    {
      "bufferView": 0,
      "byteOffset": 6039372,
      "componentType": 5125,
      "count": 279444,
      "type": "SCALAR"
    },
    {
      "bufferView": 2,
      "byteOffset": 11011728,
      "componentType": 5126,
      "count": 65532,
      "max": [
        0.38408398628234863,
        0.3760620057582855,
        0.7279689908027649
      ],
      "min": [
        -0.3760620057582855,
        -0.3844519853591919,
        -3.099999958067201e-05
      ],
      "type": "VEC3"
    },
    {
      "bufferView": 2,
      "byteOffset": 11798112,
      "componentType": 5126,
      "count": 65532,
      "max": [
        1.0,
        1.0,
        1.0
      ],
      "min": [
        -1.0,
        -1.0,
        -1.0
      ],
      "type": "VEC3"
    },
    {
      "bufferView": 3,
      "byteOffset": 7341152,
      "componentType": 5126,
      "count": 65532,
      "max": [
        1.0,
        1.0,
        1.0,
        1.0
      ],
      "min": [
        -1.0,
        -1.0,
        -1.0,
        -1.0
      ],
      "type": "VEC4"
    },
    {
      "bufferView": 1,
      "byteOffset": 3670576,
      "componentType": 5126,
      "count": 65532,
      "max": [
        0.9926760196685791,
        0.997868001461029
      ],
      "min": [
        0.007459000218659639,
        0.02174999937415123
      ],
      "type": "VEC2"
    },
    {
      "bufferView": 0,
      "byteOffset": 7157148,
      "componentType": 5125,
      "count": 318570,
      "type": "SCALAR"
    },
    {
      "bufferView": 2,
      "byteOffset": 12584496,
      "componentType": 5126,
      "count": 65532,
      "max": [
        0.3844360113143921,
        0.3768030107021332,
        0.727944016456604
      ],
      "min": [
        -0.37745800614356995,
        -0.3845460116863251,
        -0.00016199999663513154
      ],
      "type": "VEC3"
    },
    {
      "bufferView": 2,
      "byteOffset": 13370880,
      "componentType": 5126,
      "count": 65532,
      "max": [
        1.0,
        1.0,
        1.0
      ],
      "min": [
        -1.0,
        -1.0,
        -1.0
      ],
      "type": "VEC3"
    },
    {
      "bufferView": 3,
      "byteOffset": 8389664,
      "componentType": 5126,
      "count": 65532,
      "max": [
        1.0,
        1.0,
        1.0,
        1.0
      ],
      "min": [
        -1.0,
        -1.0,
        -1.0,
        -1.0
      ],
      "type": "VEC4"
    },
    {
      "bufferView": 1,
      "byteOffset": 4194832,
      "componentType": 5126,
      "count": 65532,
      "max": [
        0.9927430152893066,
        0.9976750016212463
      ],
      "min": [
        0.007822000421583652,
        0.02253600023686886
      ],
      "type": "VEC2"
    },
    {
      "bufferView": 0,
      "byteOffset": 8431428,
      "componentType": 5125,
      "count": 278049,
      "type": "SCALAR"
    },
    {
      "bufferView": 2,
      "byteOffset": 14157264,
      "componentType": 5126,
      "count": 54142,
      "max": [
        0.37499499320983887,
        0.37507501244544983,
        0.7279689908027649
      ],
      "min": [
        -0.3768030107021332,
        -0.37507501244544983,
        -0.001689000055193901
      ],
      "type": "VEC3"
    },
    {
      "bufferView": 2,
      "byteOffset": 14806968,
      "componentType": 5126,
      "count": 54142,
      "max": [
        1.0,
        1.0,
        1.0
      ],
      "min": [
        -1.0,
        -1.0,
        -1.0
      ],
      "type": "VEC3"
    },
    {
      "bufferView": 3,
      "byteOffset": 9438176,
      "componentType": 5126,
      "count": 54142,
      "max": [
        1.0,
        1.0,
        1.0,
        1.0
      ],
      "min": [
        -1.0,
        -1.0,
        -1.0,
        -1.0
      ],
      "type": "VEC4"
    },
    {
      "bufferView": 1,
      "byteOffset": 4719088,
      "componentType": 5126,
      "count": 54142,
      "max": [
        0.9941520094871521,
        0.9976750016212463
      ],
      "min": [
        0.007822000421583652,
        0.009995999746024609
      ],
      "type": "VEC2"
    },
    {
      "bufferView": 0,
      "byteOffset": 9543624,
      "componentType": 5125,
      "count": 232026,
      "type": "SCALAR"
    },
    {
      "bufferView": 2,
      "byteOffset": 15456672,
      "componentType": 5126,
      "count": 81,
      "max": [
        0.35923099517822266,
        0.35923099517822266,
        0.7616649866104126
      ],
      "min": [
        -0.35923099517822266,
        -0.35923099517822266,
        0.7355759739875793
      ],
      "type": "VEC3"
    },
    {
      "bufferView": 1,
      "byteOffset": 5152224,
      "componentType": 5126,
      "count": 81,
      "max": [
        0.0,
        0.0
      ],
      "min": [
        0.0,
        0.0
      ],
      "type": "VEC2"
    },
    {
      "bufferView": 0,
      "byteOffset": 10471728,
      "componentType": 5125,
      "count": 100,
      "type": "SCALAR"
    },
    {
      "bufferView": 2,
      "byteOffset": 15457644,
      "componentType": 5126,
      "count": 65532,
      "max": [
        0.026050999760627747,
        0.020008999854326248,
        0.337352991104126
      ],
      "min": [
        -0.010130000300705433,
        -0.03975300118327141,
        0.21664999425411224
      ],
      "type": "VEC3"
    },
    {
      "bufferView": 2,
      "byteOffset": 16244028,
      "componentType": 5126,
      "count": 65532,
      "max": [
        0.9999984502792358,
        0.9999233484268188,
        0.9999738931655884
      ],
      "min": [
        -0.999980092048645,
        -0.9999862909317017,
        -0.9999994039535522
      ],
      "type": "VEC3"
    },
    {
      "bufferView": 3,
      "byteOffset": 10304448,
      "componentType": 5126,
      "count": 65532,
      "max": [
        0.9999933242797852,
        0.9999978542327881,
        0.9996904134750366,
        1.0
      ],
      "min": [
        -0.9998394846916199,
        -0.9999950528144836,
        -0.9999405145645142,
        -1.0
      ],
      "type": "VEC4"
    },
    {
      "bufferView": 1,
      "byteOffset": 5152872,
      "componentType": 5126,
      "count": 65532,
      "max": [
        0.9893320202827454,
        0.9987040162086487
      ],
      "min": [
        0.00035099999513477087,
        0.00035099999513477087
      ],
      "type": "VEC2"
    },
    {
      "bufferView": 0,
      "byteOffset": 10472128,
      "componentType": 5125,
      "count": 374280,
      "type": "SCALAR"
    },
    {
      "bufferView": 2,
      "byteOffset": 17030412,
      "componentType": 5126,
      "count": 24380,
      "max": [
        0.02504800073802471,
        0.02944199927151203,
        0.3313030004501343
      ],
      "min": [
        -0.007379000075161457,
        -0.02494099922478199,
        0.2166759967803955
      ],
      "type": "VEC3"
    },
    {
      "bufferView": 2,
      "byteOffset": 17322972,
      "componentType": 5126,
      "count": 24380,
      "max": [
        0.9999028444290161,
        0.999922513961792,
        0.9987873435020447
      ],
      "min": [
        -0.999993085861206,
        -0.9999767541885376,
        -0.9999434947967529
      ],
      "type": "VEC3"
    },
    {
      "bufferView": 3,
      "byteOffset": 11352960,
      "componentType": 5126,
      "count": 24380,
      "max": [
        0.9998844265937805,
        0.9999976754188538,
        0.999721109867096,
        1.0
      ],
      "min": [
        -0.9998752474784851,
        -0.999995231628418,
        -0.9999807476997375,
        -1.0
      ],
      "type": "VEC4"
    },
    {
      "bufferView": 1,
      "byteOffset": 5677128,
      "componentType": 5126,
      "count": 24380,
      "max": [
        0.9921630024909973,
        0.9912570118904114
      ],
      "min": [
        0.006864999886602163,
        0.00035099999513477087
      ],
      "type": "VEC2"
    },
    {
      "bufferView": 0,
      "byteOffset": 11969248,
      "componentType": 5125,
      "count": 128238,
      "type": "SCALAR"
    }
  ],
  "asset": {
    "extras": {
      "author": "noe-3d.at (https://sketchfab.com/www.noe-3d.at)",
      "license": "CC-BY-NC-4.0 (http://creativecommons.org/licenses/by-nc/4.0/)",
      "source": "https://sketchfab.com/3d-models/reconstruction-of-the-heidentor-22205a58cf704a78af0e9ce644d06436",
      "title": "Reconstruction of the Heidentor"
    },
    "generator": "Sketchfab-16.12.0",
    "version": "2.0"
  },
  "bufferViews": [
    {
      "buffer": 0,
      "byteLength": 12482200,
      "name": "floatBufferViews",
      "target": 34963
    },
    {
      "buffer": 0,
      "byteLength": 5872168,
      "byteOffset": 12482200,
      "byteStride": 8,
      "name": "floatBufferViews",
      "target": 34962
    },
    {
      "buffer": 0,
      "byteLength": 17615532,
      "byteOffset": 18354368,
      "byteStride": 12,
      "name": "floatBufferViews",
      "target": 34962
    },
    {
      "buffer": 0,
      "byteLength": 11743040,
      "byteOffset": 35969900,
      "byteStride": 16,
      "name": "floatBufferViews",
      "target": 34962
    }
  ],
  "buffers": [
    {
      "byteLength": 47712940,
      "uri": "scene.bin"
    }
  ],
  "extensionsUsed": [
    "KHR_materials_specular"
  ],
  "images": [
    {
      "uri": "textures/Heidentor_baseColor.png"
    },
    {
      "uri": "textures/Heidentor_normal.png"
    },
    {
      "uri": "textures/Marc_Aurel_O_Material_u1_v1_baseColor.png"
    },
    {
      "uri": "textures/Marc_Aurel_O_Material_u1_v1_metallicRoughness.png"
    },
    {
      "uri": "textures/Marc_Aurel_O_Material_u1_v1_normal.png"
    }
  ],
  "materials": [
    {
      "doubleSided": true,
      "extensions": {
        "KHR_materials_specular": {
          "specularColorFactor": [
            1.0,
            1.0,
            1.0
          ],
          "specularFactor": 0.0
        }
      },
      "name": "Heidentor",
      "normalTexture": {
        "index": 1
      },
      "pbrMetallicRoughness": {
        "baseColorTexture": {
          "index": 0
        },
        "metallicFactor": 0.0
      }
    },
    {
      "doubleSided": true,
      "extensions": {
        "KHR_materials_specular": {
          "specularColorFactor": [
            1.0,
            1.0,
            1.0
          ],
          "specularFactor": 0.0
        }
      },
      "name": "Marc_Aurel_O_Material_u1_v1",
      "normalTexture": {
        "index": 4
      },
      "pbrMetallicRoughness": {
        "baseColorTexture": {
          "index": 2
        },
        "metallicRoughnessTexture": {
          "index": 3
        }
      }
    }
  ],
  "meshes": [
    {
      "name": "Object_0",
      "primitives": [
        {
          "attributes": {
            "NORMAL": 1,
            "POSITION": 0,
            "TANGENT": 2,
            "TEXCOORD_0": 3
          },
          "indices": 4,
          "material": 0,
          "mode": 4
        }
      ]
    },
    {
      "name": "Object_1",
      "primitives": [
        {
          "attributes": {
            "NORMAL": 6,
            "POSITION": 5,
            "TANGENT": 7,
            "TEXCOORD_0": 8
          },
          "indices": 9,
          "material": 0,
          "mode": 4
        }
      ]
    },
    {
      "name": "Object_2",
      "primitives": [
        {
          "attributes": {
            "NORMAL": 11,
            "POSITION": 10,
            "TANGENT": 12,
            "TEXCOORD_0": 13
          },
          "indices": 14,
          "material": 0,
          "mode": 4
        }
      ]
    },
    {
      "name": "Object_3",
      "primitives": [
        {
          "attributes": {
            "NORMAL": 16,
            "POSITION": 15,
            "TANGENT": 17,
            "TEXCOORD_0": 18
          },
          "indices": 19,
          "material": 0,
          "mode": 4
        }
      ]
    },
    {
      "name": "Object_4",
      "primitives": [
        {
          "attributes": {
            "NORMAL": 21,
            "POSITION": 20,
            "TANGENT": 22,
            "TEXCOORD_0": 23
          },
          "indices": 24,
          "material": 0,
          "mode": 4
        }
      ]
    },
    {
      "name": "Object_5",
      "primitives": [
        {
          "attributes": {
            "NORMAL": 26,
            "POSITION": 25,
            "TANGENT": 27,
            "TEXCOORD_0": 28
          },
          "indices": 29,
          "material": 0,
          "mode": 4
        }
      ]
    },
    {
      "name": "Object_6",
      "primitives": [
        {
          "attributes": {
            "NORMAL": 31,
            "POSITION": 30,
            "TANGENT": 32,
            "TEXCOORD_0": 33
          },
          "indices": 34,
          "material": 0,
          "mode": 4
        }
      ]
    },
    {
      "name": "Object_7",
      "primitives": [
        {
          "attributes": {
            "NORMAL": 36,
            "POSITION": 35,
            "TANGENT": 37,
            "TEXCOORD_0": 38
          },
          "indices": 39,
          "material": 0,
          "mode": 4
        }
      ]
    },
    {
      "name": "Object_8",
      "primitives": [
        {
          "attributes": {
            "NORMAL": 41,
            "POSITION": 40,
            "TANGENT": 42,
            "TEXCOORD_0": 43
          },
          "indices": 44,
          "material": 0,
          "mode": 4
        }
      ]
    },
    {
      "name": "Object_9",
      "primitives": [
        {
          "attributes": {
            "NORMAL": 46,
            "POSITION": 45,
            "TANGENT": 47,
            "TEXCOORD_0": 48
          },
          "indices": 49,
          "material": 0,
          "mode": 4
        }
      ]
    },
    {
      "name": "Object_10",
      "primitives": [
        {
          "attributes": {
            "NORMAL": 51,
            "POSITION": 50,
            "TANGENT": 52,
            "TEXCOORD_0": 53
          },
          "indices": 54,
          "material": 0,
          "mode": 4
        }
      ]
    },
    {
      "name": "Object_11",
      "primitives": [
        {
          "attributes": {
            "POSITION": 55,
            "TEXCOORD_0": 56
          },
          "indices": 57,
          "material": 1,
          "mode": 1
        }
      ]
    },
    {
      "name": "Object_12",
      "primitives": [
        {
          "attributes": {
            "NORMAL": 59,
            "POSITION": 58,
            "TANGENT": 60,
            "TEXCOORD_0": 61
          },
          "indices": 62,
          "material": 1,
          "mode": 4
        }
      ]
    },
    {
      "name": "Object_13",
      "primitives": [
        {
          "attributes": {
            "NORMAL": 64,
            "POSITION": 63,
            "TANGENT": 65,
            "TEXCOORD_0": 66
          },
          "indices": 67,
          "material": 1,
          "mode": 4
        }
      ]
    }
  ],
  "nodes": [
    {
      "children": [
        1
      ],
      "matrix": [
        0.009064072743058205,
        -2.2203548608595852e-16,
        0.9999589323997498,
        0.0,
        0.9999589323997498,
        2.012628451244104e-18,
        -0.009064072743058205,
        0.0,
        0.0,
        1.0,
        2.220446049250313e-16,
        0.0,
        0.0,
        0.0,
        0.0,
        1.0
      ],
      "name": "Sketchfab_model"
    },
    {
      "children": [
        2,
        3,
        4,
        5,
        6,
        7,
        8,
        9,
        10,
        11,
        12,
        13,
        14,
        15
      ],
      "name": "Heidentor_roman.obj.cleaner.materialmerger.gles"
    },
    {
      "mesh": 0,
      "name": "Object_2"
    },
    {
      "mesh": 1,
      "name": "Object_3"
    },
    {
      "mesh": 2,
      "name": "Object_4"
    },
    {
      "mesh": 3,
      "name": "Object_5"
    },
    {
      "mesh": 4,
      "name": "Object_6"
    },
    {
      "mesh": 5,
      "name": "Object_7"
    },
    {
      "mesh": 6,
      "name": "Object_8"
    },
    {
      "mesh": 7,
      "name": "Object_9"
    },
    {
      "mesh": 8,
      "name": "Object_10"
    },
    {
      "mesh": 9,
      "name": "Object_11"
    },
    {
      "mesh": 10,
      "name": "Object_12"
    },
    {
      "mesh": 11,
      "name": "Object_13"
    },
    {
      "mesh": 12,
      "name": "Object_14"
    },
    {
      "mesh": 13,
      "name": "Object_15"
    }
  ],
  "samplers": [
    {
      "magFilter": 9729,
      "minFilter": 9987,
      "wrapS": 10497,
      "wrapT": 10497
    }
  ],
  "scene": 0,
  "scenes": [
    {
      "name": "Sketchfab_Scene",
      "nodes": [
        0
      ]
    }
  ],
  "textures": [
    {
      "sampler": 0,
      "source": 0
    },
    {
      "sampler": 0,
      "source": 1
    },
    {
      "sampler": 0,
      "source": 2
    },
    {
      "sampler": 0,
      "source": 3
    },
    {
      "sampler": 0,
      "source": 4
    }
  ]
}
